# xmcd
#
# Track frame offsets:
#	150
#	17703
#	32653
#	52062
#	70864
#	89481
#	102712
#	134861
#	148849
#	168096
#	192272
#	202897
#	219050
#	267176
#	307992
#
# Disc length: 4174 seconds
#
# Revision: 6
# Processed by: cddbd v1.5.2PL0 Copyright (c) Steve Scherf et al.
# Submitted via: EasyCDDAExtractor 11.1.0.1
#
DISCID=dc104c0f
DTITLE=Hound Dog Taylor - Release The Hound
DYEAR=2004
DGENRE=Blues
TTITLE0=Wild About You, Baby (live)
TTITLE1=Sen-Sa-Shun (live)
TTITLE2=She's Gone (live)
TTITLE3=It Hurts Me Too (live)
TTITLE4=What'd I Say (live)
TTITLE5=One More Time (live)
TTITLE6=Sadie (live)
TTITLE7=The Dog Meets The Wolf (live)
TTITLE8=Walking The Ceiling
TTITLE9=Sitting At Home Alone (live)
TTITLE10=Phillips Screwdriver
TTITLE11=Gonna Send You Back To Georgia
TTITLE12=Things Don't Work Out Right (live)
TTITLE13=See Me In The Evening/It's Alright (live)
TTITLE14=Champagne And Vaseline (live)
EXTD=
EXTT0=
EXTT1=
EXTT2=
EXTT3=
EXTT4=
EXTT5=
EXTT6=
EXTT7=
EXTT8=
EXTT9=
EXTT10=
EXTT11=
EXTT12=
EXTT13=
EXTT14=
PLAYORDER=
